<svg
  xmlns="http://www.w3.org/2000/svg"
  viewBox="0 0 375 375"
  className="w-32 h-32 text-white"
>
  <path
    fill="currentColor"
    d="M187.6875 37.5L57.59375 112.5V262.5L187.6875 337.5L317.78125 262.5V112.5L187.6875 37.5ZM181.269531 301.492188L170.777344 307.539062L75.109375 252.390625V130.191406L170.71875 184.914062L181.078125 202.820312L181.269531 301.492188ZM187.730469 181.972656L81.226562 120.574219L187.726562 59.113281L294.230469 120.515625L187.730469 181.972656ZM280.175781 178.730469L280.140625 164.824219L257.570312 177.835938V276.804688L237.222656 288.535156V189.566406L214.652344 202.574219V216.253906L194.328125 227.890625V190.84375L300.441406 129.691406V167.125L280.175781 178.730469Z"
  />
  <path
    fill="currentColor"
    d="M95.289062 240.558594L160.570312 278.246094L160.804688 202.800781L95.257812 165.28125Z"
  />
</svg>
